<?xml version="1.0" ?><svg enable-background="new 0 0 52 52" id="Layer_1" version="1.1" viewBox="0 0 52 52" xml:space="preserve" xmlns="http://www.w3.org/2000/svg" xmlns:xlink="http://www.w3.org/1999/xlink"><path d="M38,11.9984131v3h-3.9968262H33h-4v-2h5.0031738v-2.9968262c0-0.0010986-0.0001831-0.0020752-0.0001831-0.0031738H29v-2  h4.7389526c-0.8931274-3.4425049-4.0185547-5.9968262-7.7357788-5.9968262c-3.7172852,0-6.8426514,2.5543213-7.7357788,5.9968262  h4.6876831v2h-4.9517212c0,0.0010986-0.0001831,0.0020752-0.0001831,0.0031738v2.9968262h4.9519043v2H19h-0.9968262H14v-3h-2v10  c0,7.3822021,5.7470703,13.4330444,13,13.9493408v12.0506592h-6v2h14v-2h-6V35.9477539  c7.2529297-0.5162964,13-6.5671387,13-13.9493408v-10H38z M26,33.9984131c-6.6171875,0-12-5.3833008-12-12v-5h4.0031738v1h4.9519043  v2h-4.9519043v2.0031738c0,4.4099731,3.5899658,8,8,8c4.4099731,0,8-3.5900269,8-8v-2.0031738H29v-2h5.0031738v-1H38v5  C38,28.6151123,32.6171875,33.9984131,26,33.9984131z"/></svg>