<?xml version="1.0" ?><svg enable-background="new 0 0 52 52" id="Layer_1" version="1.1" viewBox="0 0 52 52" xml:space="preserve" xmlns="http://www.w3.org/2000/svg" xmlns:xlink="http://www.w3.org/1999/xlink"><g><g><g><g><path d="M15.4070959,40.3449593L7.815299,33.9250374l14.180665-18.7680645      c-0.6865234-3.3295898,0.234375-6.7998047,2.5078125-9.3701172c4.0400391-4.5683594,11.1259766-5.0703125,15.7949219-1.121582      c2.2744141,1.9233398,3.6445313,4.5996094,3.8574219,7.5361328c0.2109375,2.9243164-0.7509766,5.7548828-2.7109375,7.9702148      l0,0c-2.2724609,2.5678711-5.6416016,3.9628906-9.1083984,3.7646484L15.4070959,40.3449593z M10.5516272,33.6203499      l4.7636719,4.0283203l16.2841797-15.7827129l0.4599609,0.0439453c2.9912109,0.2905273,5.9355469-0.8564453,7.8876953-3.0634766      l0.7490234,0.6625977l-0.7490234-0.6625977c1.6005859-1.809082,2.3867188-4.1176758,2.2138672-6.5004883      c-0.1738281-2.3950195-1.2939453-4.5805664-3.1533203-6.1533203c-3.8476563-3.2534182-9.6816406-2.8403323-13.0058594,0.9194336      c-1.9433594,2.1972733-2.6757813,5.1992188-1.9570313,8.0297852l0.1171875,0.4658203L10.5516272,33.6203499z"/></g></g><g><g><path d="M39.7039719,19.6364651C38.1317062,7.3815823,25.8153,7.424551,25.2703781,7.4494534l-0.0371094-2      c0.1552734-0.0029297,14.6503906-0.128418,16.4550781,13.9321289L39.7039719,19.6364651z"/></g></g></g><g><g><rect height="14" width="2" x="18.3348312" y="34.9968147"/></g></g><g><g><rect height="2" width="12" x="13.1834631" y="47.9968147"/></g></g></g></svg>